<?xml version="1.0" encoding="UTF-8" standalone="no"?>
<svg width="362px" height="299px" viewBox="0 0 362 299" version="1.1" xmlns="http://www.w3.org/2000/svg" xmlns:xlink="http://www.w3.org/1999/xlink">
    <!-- Generator: Sketch 41.2 (35397) - http://www.bohemiancoding.com/sketch -->
    <title>frame</title>
    <desc>Created with Sketch.</desc>
    <defs>
        <path d="M178.911889,0.00111136854 C178.911889,0.000370733213 178.911889,2.84217094e-14 178.911889,2.84217094e-14 C178.911889,2.84217094e-14 178.892249,0.000177048473 178.853399,0.000547272069 C178.81455,0.000177048473 178.79491,2.84217094e-14 178.79491,2.84217094e-14 C178.79491,2.84217094e-14 178.79491,0.000370732262 178.79491,0.00111136569 C174.061816,0.0472459908 27.2158194,1.58598751 15.130292,15.0231481 C9.6709054,20.4861111 -1.24786773,170.717593 0.116978907,217.152778 C1.48182555,263.587963 2,263 15.130292,270.416667 C41.9921646,282.996331 45.1550749,289.533224 178.79491,294.995221 C178.79491,294.996837 178.79491,294.99843 178.79491,295 C178.814409,294.999204 178.833906,294.998407 178.853399,294.997611 C178.872893,294.998407 178.89239,294.999204 178.911889,295 C178.911889,294.99843 178.911889,294.996837 178.911889,294.995221 C312.551895,289.533224 316.00775,282.996331 342.576507,270.416667 C354,264 356.224973,263.587963 357.58982,217.152778 C358.954667,170.717593 348.035894,20.4861111 342.576507,15.0231481 C330.49098,1.58598751 183.644982,0.0472459908 178.911889,0.00111136855 Z" id="path-1"></path>
        <filter x="-50%" y="-50%" width="200%" height="200%" filterUnits="objectBoundingBox" id="filter-3">
            <feOffset dx="0" dy="1" in="SourceAlpha" result="shadowOffsetOuter1"></feOffset>
            <feGaussianBlur stdDeviation="1" in="shadowOffsetOuter1" result="shadowBlurOuter1"></feGaussianBlur>
            <feColorMatrix values="0 0 0 0 1   0 0 0 0 1   0 0 0 0 1  0 0 0 0.200237772 0" type="matrix" in="shadowBlurOuter1"></feColorMatrix>
        </filter>
    </defs>
    <g id="Page-1" stroke="none" stroke-width="1" fill="none" fill-rule="evenodd">
        <g id="export" transform="translate(-28.000000, -32.000000)">
            <g id="frame" transform="translate(30.000000, 33.000000)">
                <mask id="mask-2" fill="white">
                    <use xlink:href="#path-1"></use>
                </mask>
                <g id="Mask">
                    <use fill="black" fill-opacity="1" filter="url(#filter-3)" xlink:href="#path-1"></use>
                    <use fill="#000000" fill-rule="evenodd" xlink:href="#path-1"></use>
                </g>
                <polygon id="Path-2" fill="#FFFFFF" opacity="0.102203825" mask="url(#mask-2)" points="203 -17 358.592517 354.481481 409.091843 -17"></polygon>
            </g>
        </g>
    </g>
</svg>