<?xml version="1.0" standalone="no"?>
<!DOCTYPE svg PUBLIC "-//W3C//DTD SVG 20010904//EN"
 "http://www.w3.org/TR/2001/REC-SVG-20010904/DTD/svg10.dtd">
<svg version="1.0" xmlns="http://www.w3.org/2000/svg"
 width="416.000000pt" height="416.000000pt" viewBox="0 0 416.000000 416.000000"
 preserveAspectRatio="xMidYMid meet">
<metadata>
Created by potrace 1.11, written by Peter Selinger 2001-2013
</metadata>
<g transform="translate(0.000000,416.000000) scale(0.100000,-0.100000)"
fill="#000000" stroke="none">
<path d="M0 2080 l0 -1800 2080 0 2080 0 0 1800 0 1800 -2080 0 -2080 0 0
-1800z m1230 720 l0 -100 -99 0 c-81 0 -100 3 -105 16 -8 21 -8 169 1 177 3 4
51 7 105 7 l98 0 0 -100z m930 0 l0 -100 -265 0 -265 0 0 -75 0 -75 242 0
c234 0 242 -1 265 -22 l23 -21 0 -332 c0 -325 0 -332 -21 -351 -20 -18 -43
-19 -339 -22 l-318 -3 -28 25 c-28 23 -29 29 -32 125 l-4 101 106 0 106 0 0
-25 0 -25 163 2 162 3 3 173 2 172 -239 0 c-239 0 -240 0 -268 24 l-28 24 0
232 c0 232 0 232 24 251 22 18 43 19 367 19 l344 0 0 -100z m900 90 c11 -6 24
-27 30 -48 13 -50 12 -171 -3 -203 -7 -14 -52 -61 -102 -105 l-89 -79 83 -5
c126 -8 123 -1 119 -352 -3 -242 -3 -248 -26 -270 -22 -23 -25 -23 -341 -26
l-319 -3 -28 24 c-27 23 -28 30 -32 126 l-4 101 105 0 c102 0 106 -1 109 -22
3 -23 5 -23 163 -23 l160 0 3 123 3 122 -116 0 c-110 0 -117 1 -140 25 -23 22
-25 32 -25 108 0 52 5 89 13 99 6 8 64 57 127 108 63 52 119 97 124 102 6 4
-63 8 -152 8 l-162 0 0 -25 0 -26 -102 3 -103 3 0 98 c0 96 1 100 28 123 l28
24 315 0 c194 0 323 -4 334 -10z m-1830 -690 l0 -401 -102 3 -103 3 -3 398 -2
397 105 0 105 0 0 -400z m10 -620 c0 -17 -7 -20 -45 -20 -41 0 -45 -2 -45 -25
0 -22 4 -25 35 -25 28 0 35 -4 35 -20 0 -16 -7 -20 -35 -20 -31 0 -35 -3 -35
-25 0 -23 4 -25 45 -25 39 0 45 -3 45 -20 0 -19 -5 -21 -62 -18 l-63 3 -3 108
-3 107 66 0 c58 0 65 -2 65 -20z m174 -60 l20 -75 20 78 c18 67 23 77 43 77
21 0 23 -5 23 -49 0 -26 3 -76 6 -110 7 -58 6 -61 -15 -61 -19 0 -21 6 -22 53
l-1 52 -16 -53 c-12 -43 -19 -52 -35 -50 -14 2 -25 17 -36 48 l-16 45 -3 -47
c-3 -41 -6 -48 -24 -48 -20 0 -20 4 -14 61 3 34 6 84 6 111 0 45 2 49 22 46
18 -2 25 -16 42 -78z m266 -10 l0 -90 30 0 30 0 0 90 c0 83 1 90 20 90 19 0
20 -7 20 -99 0 -117 -5 -123 -82 -119 l-53 3 -3 108 c-3 102 -2 107 18 107 19
0 20 -6 20 -90z m260 1 l0 -90 47 -3 c36 -2 49 -7 51 -20 3 -16 -5 -18 -67
-18 l-71 0 0 110 c0 103 1 110 20 110 19 0 20 -7 20 -89z m325 -8 c15 -54 30
-104 32 -110 3 -8 -3 -13 -15 -13 -13 0 -22 9 -26 25 -5 21 -12 25 -41 25 -29
0 -36 -4 -41 -25 -6 -25 -44 -37 -44 -14 0 12 50 190 57 202 2 4 15 7 27 7 21
0 26 -10 51 -97z m265 77 c0 -15 -7 -20 -25 -20 -25 0 -25 -1 -25 -90 0 -83
-1 -90 -20 -90 -19 0 -20 7 -20 90 0 89 0 90 -25 90 -18 0 -25 5 -25 20 0 18
7 20 70 20 63 0 70 -2 70 -20z m238 8 c16 -16 16 -180 0 -196 -7 -7 -36 -12
-65 -12 -41 0 -54 4 -63 19 -14 28 -13 174 2 189 7 7 35 12 63 12 28 0 56 -5
63 -12z m250 0 c15 -15 16 -100 1 -115 -9 -9 -8 -22 5 -52 15 -40 15 -41 -4
-41 -14 0 -25 12 -36 40 -11 27 -22 40 -35 40 -15 0 -19 -7 -19 -40 0 -33 -3
-40 -20 -40 -19 0 -20 7 -20 110 l0 110 58 0 c32 0 63 -5 70 -12z"/>
<path d="M2203 1506 c-10 -33 -9 -36 8 -36 20 0 24 20 10 54 -6 15 -9 12 -18
-18z"/>
<path d="M2677 1553 c-4 -3 -7 -35 -7 -70 l0 -63 35 0 35 0 0 70 0 70 -28 0
c-16 0 -32 -3 -35 -7z"/>
<path d="M2930 1530 c0 -27 3 -30 30 -30 27 0 30 3 30 30 0 27 -3 30 -30 30
-27 0 -30 -3 -30 -30z"/>
</g>
</svg>
